<?xml version="1.0" standalone="no"?>
<!DOCTYPE svg PUBLIC "-//W3C//DTD SVG 20010904//EN"
 "http://www.w3.org/TR/2001/REC-SVG-20010904/DTD/svg10.dtd">
<svg version="1.0" xmlns="http://www.w3.org/2000/svg"
 width="70.000000pt" height="70.000000pt" viewBox="0 0 70.000000 70.000000"
 preserveAspectRatio="xMidYMid meet">
<metadata>
Created by potrace 1.11, written by Peter Selinger 2001-2013
</metadata>
<g transform="translate(0.000000,70.000000) scale(0.100000,-0.100000)"
fill="#000000" stroke="none">
<path d="M334 656 c-10 -26 1 -51 23 -54 28 -4 50 32 32 54 -15 18 -48 18 -55
0z"/>
<path d="M282 647 c-15 -17 1 -42 23 -33 18 6 17 37 -1 43 -6 2 -16 -2 -22
-10z"/>
<path d="M232 641 c-10 -6 -10 -10 2 -20 10 -9 16 -9 21 -1 10 16 -7 31 -23
21z"/>
<path d="M415 640 c-3 -5 1 -10 9 -10 9 0 16 5 16 10 0 6 -4 10 -9 10 -6 0
-13 -4 -16 -10z"/>
<path d="M456 627 c-26 -19 -13 -57 20 -57 28 0 42 25 27 48 -13 22 -26 24
-47 9z"/>
<path d="M195 610 c4 -6 11 -8 16 -5 14 9 11 15 -7 15 -8 0 -12 -5 -9 -10z"/>
<path d="M163 603 c-22 -8 -15 -43 7 -43 11 0 20 -7 20 -15 0 -17 16 -20 25
-5 3 6 -1 13 -9 16 -9 3 -16 14 -16 24 0 22 -10 29 -27 23z"/>
<path d="M387 593 c-14 -14 -7 -43 11 -43 26 0 33 10 21 31 -10 20 -21 24 -32
12z"/>
<path d="M231 572 c-12 -23 4 -52 29 -52 25 0 41 30 29 53 -13 22 -46 22 -58
-1z"/>
<path d="M315 580 c-3 -6 1 -13 10 -16 19 -8 30 0 20 15 -8 14 -22 14 -30 1z"/>
<path d="M524 575 c-4 -9 -2 -21 4 -27 15 -15 44 -1 40 19 -4 23 -36 29 -44 8z"/>
<path d="M107 559 c-24 -14 -21 -48 6 -58 26 -10 47 3 47 30 0 24 -30 40 -53
28z"/>
<path d="M313 543 c-7 -3 -13 -13 -13 -23 0 -19 17 -30 38 -23 6 3 12 13 12
23 0 19 -17 30 -37 23z"/>
<path d="M430 531 c-7 -15 -6 -24 6 -36 9 -9 21 -14 27 -12 18 6 31 33 24 51
-9 22 -44 20 -57 -3z"/>
<path d="M576 543 c-11 -11 -6 -23 9 -23 8 0 15 4 15 9 0 13 -16 22 -24 14z"/>
<path d="M372 514 c4 -21 22 -23 26 -1 2 10 -3 17 -13 17 -10 0 -15 -6 -13
-16z"/>
<path d="M193 513 c-15 -5 -17 -39 -4 -47 14 -9 41 4 41 19 0 17 -22 33 -37
28z"/>
<path d="M514 505 c-4 -9 -2 -21 4 -27 15 -15 44 -1 40 19 -4 23 -36 29 -44 8z"/>
<path d="M607 497 c-11 -8 -14 -17 -8 -26 11 -17 41 -7 41 13 0 21 -15 27 -33
13z"/>
<path d="M250 490 c0 -5 5 -10 10 -10 6 0 10 5 10 10 0 6 -4 10 -10 10 -5 0
-10 -4 -10 -10z"/>
<path d="M52 477 c-15 -17 0 -39 21 -31 21 8 22 18 3 33 -10 8 -16 8 -24 -2z"/>
<path d="M137 484 c-8 -8 1 -24 13 -24 4 0 10 7 14 15 5 15 -14 21 -27 9z"/>
<path d="M476 463 c-11 -11 -6 -23 9 -23 8 0 15 4 15 9 0 13 -16 22 -24 14z"/>
<path d="M323 450 c-25 -10 -38 -48 -28 -80 17 -54 107 -42 113 15 5 51 -38
84 -85 65z"/>
<path d="M140 444 c0 -3 17 -25 38 -49 75 -85 122 -205 122 -310 l0 -50 49 -1
49 -1 -3 36 c-6 99 50 240 133 332 24 27 41 49 37 49 -19 0 -77 -40 -130 -90
-83 -79 -95 -81 -148 -28 -43 44 -147 123 -147 112z"/>
<path d="M614 425 c-10 -25 4 -47 28 -43 17 2 24 11 26 31 3 23 0 27 -23 27
-14 0 -28 -7 -31 -15z"/>
<path d="M27 423 c-14 -13 -7 -43 12 -53 23 -12 56 14 47 37 -3 8 -6 17 -6 19
0 7 -46 5 -53 -3z"/>
<path d="M566 423 c-12 -12 -6 -33 9 -33 8 0 15 6 15 14 0 17 -14 28 -24 19z"/>
<path d="M104 405 c-7 -18 3 -35 21 -35 21 0 28 19 15 35 -16 19 -29 19 -36 0z"/>
<path d="M593 373 c-18 -7 -16 -23 2 -23 8 0 15 7 15 15 0 8 -1 15 -2 14 -2 0
-9 -3 -15 -6z"/>
<path d="M653 363 c-17 -6 -16 -28 0 -42 10 -8 17 -7 25 1 24 24 6 52 -25 41z"/>
<path d="M23 353 c-7 -3 -13 -14 -13 -25 0 -14 6 -19 22 -16 13 2 24 10 26 19
3 18 -15 29 -35 22z"/>
<path d="M80 346 c0 -9 7 -16 16 -16 17 0 14 22 -4 28 -7 2 -12 -3 -12 -12z"/>
<path d="M204 312 c9 -15 10 -82 2 -110 -16 -50 -98 -42 -158 15 l-28 26 10
-34 c12 -44 65 -89 130 -112 29 -11 63 -29 75 -40 30 -29 42 -31 50 -6 18 54
-31 227 -73 261 -13 10 -14 10 -8 0z"/>
<path d="M448 254 c-23 -49 -32 -86 -36 -139 -5 -85 5 -99 47 -58 16 15 60 40
97 56 71 28 98 53 110 103 l7 29 -36 -32 c-49 -43 -102 -53 -130 -24 -18 17
-22 33 -21 76 0 30 -1 55 -3 55 -2 0 -18 -30 -35 -66z"/>
<path d="M97 292 c-36 -40 -11 -95 43 -95 36 0 60 23 60 58 0 48 -70 73 -103
37z"/>
<path d="M514 284 c-37 -55 25 -117 80 -80 18 11 26 25 26 45 0 59 -75 84
-106 35z"/>
</g>
</svg>
