<svg width="89" height="89" viewBox="0 0 89 89" fill="none" xmlns="http://www.w3.org/2000/svg">
<path d="M50.2603 35.4016H53.9727V42.8242L63.2538 35.4016H70.6786C75.1093 35.4016 79.3585 33.6421 82.4915 30.51C85.6244 27.378 87.3845 23.1301 87.3845 18.7008C87.3845 14.2715 85.6244 10.0236 82.4915 6.89155C79.3585 3.75954 75.1093 2 70.6786 2H48.4041C43.9734 2 39.7242 3.75954 36.5913 6.89155C33.4583 10.0236 31.6982 14.2715 31.6982 18.7008" stroke="#959494" stroke-width="3" stroke-linecap="round" stroke-linejoin="round"/>
<path d="M2 87.3596C2.0498 83.1195 2.93276 78.9304 4.59869 75.0307C6.41778 71.3899 14.0245 68.8663 23.5729 65.3331C26.153 64.3756 25.7298 57.6359 24.5863 56.3778C22.7648 54.4059 21.3812 52.071 20.5263 49.5265C19.6715 46.9821 19.3649 44.2856 19.6266 41.6143C19.463 39.9141 19.6512 38.1984 20.1794 36.574C20.7077 34.9496 21.5647 33.4513 22.6971 32.1723C23.8296 30.8933 25.2132 29.861 26.7619 29.1395C28.3106 28.4181 29.9913 28.0231 31.6993 27.979C33.4086 28.0211 35.0909 28.4147 36.6414 29.1352C38.1919 29.8557 39.5773 30.8877 40.7113 32.167C41.8453 33.4462 42.7037 34.9452 43.2328 36.5706C43.762 38.1959 43.9506 39.9128 43.787 41.6143C44.0486 44.2856 43.742 46.9821 42.8872 49.5265C42.0324 52.071 40.6487 54.4059 38.8272 56.3778C37.6837 57.6359 37.2605 64.3756 39.8407 65.3331C49.389 68.8663 56.9957 71.3899 58.8148 75.0307C60.4808 78.9304 61.3637 83.1195 61.4135 87.3596H2Z" stroke="#959494" stroke-width="3" stroke-linecap="round" stroke-linejoin="round"/>
<path d="M69.7696 19.6088L68.7091 20.6696L69.7696 19.6088C69.59 19.4293 69.4677 19.2006 69.4182 18.9517C69.3687 18.7029 69.3941 18.4449 69.4913 18.2104C69.5884 17.9759 69.753 17.7755 69.9642 17.6344C70.1754 17.4933 70.4238 17.418 70.6779 17.418C71.0186 17.418 71.3454 17.5533 71.5862 17.794C71.827 18.0348 71.9622 18.3612 71.9622 18.7014C71.9622 18.9552 71.8869 19.2033 71.7458 19.4143L72.9929 20.2478L71.7458 19.4143C71.6048 19.6254 71.4042 19.7899 71.1695 19.8871C70.9348 19.9843 70.6764 20.0098 70.4272 19.9602C70.178 19.9107 69.9491 19.7884 69.7696 19.6088Z" fill="#FF43E1" stroke="#959494" stroke-width="3"/>
<path d="M58.6338 19.6088L57.5733 20.6696L58.6338 19.6088C58.4542 19.4293 58.332 19.2006 58.2825 18.9517C58.233 18.7029 58.2584 18.4449 58.3555 18.2104C58.4527 17.9759 58.6172 17.7755 58.8284 17.6344C59.0396 17.4933 59.288 17.418 59.5421 17.418C59.8829 17.418 60.2096 17.5533 60.4504 17.794C60.6912 18.0348 60.8264 18.3612 60.8264 18.7014C60.8264 18.9552 60.7512 19.2033 60.6101 19.4143L61.8572 20.2478L60.6101 19.4143C60.469 19.6254 60.2685 19.7899 60.0338 19.8871C59.799 19.9843 59.5407 20.0098 59.2915 19.9602C59.0423 19.9107 58.8134 19.7884 58.6338 19.6088Z" fill="#FF43E1" stroke="#959494" stroke-width="3"/>
<path d="M47.6917 17.6344C47.9029 17.4933 48.1513 17.418 48.4054 17.418C48.7462 17.418 49.0729 17.5533 49.3137 17.794L50.3742 16.7332L49.3137 17.794C49.5545 18.0348 49.6897 18.3612 49.6897 18.7014C49.6897 18.9552 49.6145 19.2033 49.4734 19.4143L50.7205 20.2478L49.4734 19.4143C49.3323 19.6254 49.1318 19.7899 48.897 19.8871C48.6623 19.9843 48.404 20.0098 48.1548 19.9602C47.9055 19.9107 47.6767 19.7884 47.4971 19.6088L46.4366 20.6696L47.4971 19.6088C47.3175 19.4293 47.1953 19.2006 47.1458 18.9517C47.0962 18.7029 47.1216 18.4449 47.2188 18.2104C47.3159 17.9759 47.4805 17.7755 47.6917 17.6344Z" fill="#FF43E1" stroke="#959494" stroke-width="3"/>
</svg>
