<svg width="89" height="89" viewBox="0 0 89 89" fill="none" xmlns="http://www.w3.org/2000/svg">
<path d="M48.034 86.3557C47.5689 86.5677 47.0651 86.6814 46.554 86.6897C46.043 86.698 45.5357 86.6007 45.064 86.4039L4.28314 69.4211C3.6069 69.139 3.02927 68.6633 2.62298 68.0537C2.2167 67.4442 1.99994 66.728 2 65.9955V22.6551C1.99965 21.9327 2.21022 21.2258 2.60589 20.6213C3.00156 20.0168 3.56512 19.5408 4.22745 19.2519L43.2078 2.30984C43.6762 2.10548 44.1817 2 44.6928 2C45.2038 2 45.7094 2.10548 46.1778 2.30984L85.1581 19.2519C85.8204 19.5408 86.384 20.0168 86.7797 20.6213C87.1753 21.2258 87.3859 21.9327 87.3856 22.6551V66.0772C87.3861 66.7901 87.1812 67.4881 86.7954 68.0876C86.4096 68.6872 85.8592 69.163 85.2101 69.4582L48.034 86.3557Z" stroke="#959494" stroke-width="3" stroke-linecap="round" stroke-linejoin="round"/>
<path d="M46.5508 38.7778V86.7314" stroke="#959494" stroke-width="3" stroke-linecap="round" stroke-linejoin="round"/>
<path d="M46.5508 38.7777L86.7154 20.5293" stroke="#959494" stroke-width="3" stroke-linecap="round" stroke-linejoin="round"/>
<path d="M65.0098 10.4966L24.2734 29.246V42.8256" stroke="#959494" stroke-width="3" stroke-linecap="round" stroke-linejoin="round"/>
<path d="M61.3994 57.334V70.3235" stroke="#959494" stroke-width="3" stroke-linecap="round" stroke-linejoin="round"/>
<path d="M55.8291 62.9009L61.3977 57.334L66.0382 61.9731" stroke="#959494" stroke-width="3" stroke-linecap="round" stroke-linejoin="round"/>
<path d="M76.248 49.9121V62.9016" stroke="#959494" stroke-width="3" stroke-linecap="round" stroke-linejoin="round"/>
<path d="M70.6787 55.479L76.2473 49.9121L80.8879 54.5512" stroke="#959494" stroke-width="3" stroke-linecap="round" stroke-linejoin="round"/>
<path d="M46.5468 38.776L2.68457 20.5054" stroke="#959494" stroke-width="3" stroke-linecap="round" stroke-linejoin="round"/>
</svg>
